<svg width="28" height="28" viewBox="0 0 28 28" fill="none" xmlns="http://www.w3.org/2000/svg">
<path d="M14 0.875C11.4041 0.875 8.86653 1.64477 6.70813 3.08696C4.54974 4.52915 2.86747 6.579 1.87407 8.97728C0.880672 11.3756 0.620753 14.0146 1.12718 16.5606C1.63361 19.1066 2.88365 21.4452 4.71921 23.2808C6.55478 25.1163 8.89343 26.3664 11.4394 26.8728C13.9854 27.3792 16.6244 27.1193 19.0227 26.1259C21.421 25.1325 23.4708 23.4503 24.913 21.2919C26.3552 19.1335 27.125 16.5959 27.125 14C27.1211 10.5202 25.737 7.18413 23.2764 4.72357C20.8159 2.26301 17.4797 0.878937 14 0.875ZM6.99999 16.625C6.48081 16.625 5.9733 16.471 5.54162 16.1826C5.10994 15.8942 4.77349 15.4842 4.57481 15.0045C4.37613 14.5249 4.32414 13.9971 4.42543 13.4879C4.52672 12.9787 4.77672 12.511 5.14384 12.1438C5.51095 11.7767 5.97868 11.5267 6.48788 11.4254C6.99708 11.3242 7.52488 11.3761 8.00454 11.5748C8.48419 11.7735 8.89416 12.1099 9.1826 12.5416C9.47104 12.9733 9.62499 13.4808 9.62499 14C9.62499 14.6962 9.34843 15.3639 8.85615 15.8562C8.36386 16.3484 7.69618 16.625 6.99999 16.625ZM14 23.625C13.4808 23.625 12.9733 23.471 12.5416 23.1826C12.1099 22.8942 11.7735 22.4842 11.5748 22.0045C11.3761 21.5249 11.3241 20.9971 11.4254 20.4879C11.5267 19.9787 11.7767 19.511 12.1438 19.1438C12.5109 18.7767 12.9787 18.5267 13.4879 18.4254C13.9971 18.3242 14.5249 18.3761 15.0045 18.5748C15.4842 18.7735 15.8942 19.1099 16.1826 19.5416C16.471 19.9733 16.625 20.4808 16.625 21C16.625 21.6962 16.3484 22.3639 15.8561 22.8562C15.3639 23.3484 14.6962 23.625 14 23.625ZM14 9.625C13.4808 9.625 12.9733 9.47105 12.5416 9.18261C12.1099 8.89417 11.7735 8.4842 11.5748 8.00454C11.3761 7.52489 11.3241 6.99709 11.4254 6.48789C11.5267 5.97869 11.7767 5.51096 12.1438 5.14384C12.5109 4.77673 12.9787 4.52672 13.4879 4.42544C13.9971 4.32415 14.5249 4.37614 15.0045 4.57482C15.4842 4.7735 15.8942 5.10995 16.1826 5.54163C16.471 5.97331 16.625 6.48082 16.625 7C16.625 7.69619 16.3484 8.36387 15.8561 8.85615C15.3639 9.34844 14.6962 9.625 14 9.625ZM21 16.625C20.4808 16.625 19.9733 16.471 19.5416 16.1826C19.1099 15.8942 18.7735 15.4842 18.5748 15.0045C18.3761 14.5249 18.3241 13.9971 18.4254 13.4879C18.5267 12.9787 18.7767 12.511 19.1438 12.1438C19.511 11.7767 19.9787 11.5267 20.4879 11.4254C20.9971 11.3242 21.5249 11.3761 22.0045 11.5748C22.4842 11.7735 22.8942 12.1099 23.1826 12.5416C23.471 12.9733 23.625 13.4808 23.625 14C23.625 14.6962 23.3484 15.3639 22.8561 15.8562C22.3639 16.3484 21.6962 16.625 21 16.625Z" fill="white" fill-opacity="0.7"/>
</svg>
