<svg width="28" height="22" viewBox="0 0 28 22" fill="none" xmlns="http://www.w3.org/2000/svg">
<path d="M28 7.5V1.375C28 1.14294 27.9078 0.920376 27.7437 0.756282C27.5796 0.592187 27.3571 0.5 27.125 0.5H0.875C0.642936 0.5 0.420376 0.592187 0.256282 0.756282C0.0921872 0.920376 0 1.14294 0 1.375L0 7.5C0.928258 7.5 1.8185 7.86875 2.47487 8.52513C3.13125 9.1815 3.5 10.0717 3.5 11C3.5 11.9283 3.13125 12.8185 2.47487 13.4749C1.8185 14.1313 0.928258 14.5 0 14.5L0 20.625C0 20.8571 0.0921872 21.0796 0.256282 21.2437C0.420376 21.4078 0.642936 21.5 0.875 21.5H27.125C27.3571 21.5 27.5796 21.4078 27.7437 21.2437C27.9078 21.0796 28 20.8571 28 20.625V14.5C27.0717 14.5 26.1815 14.1313 25.5251 13.4749C24.8687 12.8185 24.5 11.9283 24.5 11C24.5 10.0717 24.8687 9.1815 25.5251 8.52513C26.1815 7.86875 27.0717 7.5 28 7.5ZM20.125 14.5H7.875V12.75H20.125V14.5ZM20.125 9.25H7.875V7.5H20.125V9.25Z" fill="white"/>
</svg>
